<svg width="60" height="60" viewBox="0 0 40 40" fill="none" xmlns="http://www.w3.org/2000/svg">
<path fill-rule="evenodd" clip-rule="evenodd" d="M0 20C0 8.9543 8.95499 0 20 0C31.0457 0 40 8.95499 40 20C40 31.0457 31.045 40 20 40C8.9543 40 0 31.045 0 20ZM2.22222 20C2.22222 10.1816 10.1794 2.22222 20 2.22222C29.8184 2.22222 37.7778 10.1794 37.7778 20C37.7778 29.8184 29.8206 37.7778 20 37.7778C10.1816 37.7778 2.22222 29.8206 2.22222 20Z" fill="#232323"/>
<path fill-rule="evenodd" clip-rule="evenodd" d="M6.88824 27.2073C9.77992 25.9106 14.5175 24.844 22.2985 26.8708C27.06 28.111 30.6165 27.95 33.2327 27.2073C33.2327 27.3455 29.4926 35.1662 20.1291 35.1662C10.7656 35.1662 6.88824 27.1781 6.88824 27.2073Z" fill="#31AAB7"/>
<path d="M27.3486 16.832H19.5006V19.592H25.7886V23.264H19.5006V29H14.6046V13.16H27.3486V16.832Z" fill="black"/>
</svg>
